# xmcd
#
# Track frame offsets:
#	150
#	7117
#	22169
#	33730
#	46977
#	58991
#	70928
#	83647
#	95482
#	104276
#	114772
#	127197
#
# Disc length: 1850 seconds
#
# Revision: 1
# Processed by: cddbd v1.5.2PL0 Copyright (c) Steve Scherf et al.
# Submitted via: audiograbber 1.83.01
#
DISCID=a507380c
DTITLE=Wayne Massengale - Licensed To Fiddle
DYEAR=1900
DGENRE=Bluegrass
TTITLE0=Licensed To Fiddle
TTITLE1=Goldrush
TTITLE2=Sally Goddin
TTITLE3=I'm Not Over You
TTITLE4=Beaumont Rag
TTITLE5=Clariet Polka
TTITLE6=End Of The Line
TTITLE7=Taylor Waltz
TTITLE8=Roanoke
TTITLE9=Cotton Eyed Joe
TTITLE10=Wheel Hoss
TTITLE11=Orange Blossom Special
EXTD=
EXTT0=
EXTT1=
EXTT2=
EXTT3=
EXTT4=
EXTT5=
EXTT6=
EXTT7=
EXTT8=
EXTT9=
EXTT10=
EXTT11=
PLAYORDER=
